<mxfile host="app.diagrams.net" agent="Mozilla/5.0 (Macintosh; Intel Mac OS X 10_15_7) AppleWebKit/605.1.15 (KHTML, like Gecko) Version/17.6 Safari/605.1.15" version="24.8.3">
  <diagram name="Page-1" id="VgmJd4mGT0JCFC55TCO2">
    <mxGraphModel dx="984" dy="667" grid="1" gridSize="10" guides="1" tooltips="1" connect="1" arrows="1" fold="1" page="1" pageScale="1" pageWidth="850" pageHeight="1100" math="0" shadow="0">
      <root>
        <mxCell id="0" />
        <mxCell id="1" parent="0" />
        <mxCell id="fa78IFjZWXkh8iCnJKM1-6" style="edgeStyle=orthogonalEdgeStyle;rounded=0;orthogonalLoop=1;jettySize=auto;html=1;exitX=0;exitY=0.5;exitDx=0;exitDy=0;" edge="1" parent="1" source="fa78IFjZWXkh8iCnJKM1-1">
          <mxGeometry relative="1" as="geometry">
            <mxPoint x="80" y="100" as="targetPoint" />
          </mxGeometry>
        </mxCell>
        <mxCell id="fa78IFjZWXkh8iCnJKM1-7" style="edgeStyle=orthogonalEdgeStyle;rounded=0;orthogonalLoop=1;jettySize=auto;html=1;exitX=0.5;exitY=1;exitDx=0;exitDy=0;" edge="1" parent="1" source="fa78IFjZWXkh8iCnJKM1-1">
          <mxGeometry relative="1" as="geometry">
            <mxPoint x="435" y="100" as="targetPoint" />
          </mxGeometry>
        </mxCell>
        <mxCell id="fa78IFjZWXkh8iCnJKM1-8" style="edgeStyle=orthogonalEdgeStyle;rounded=0;orthogonalLoop=1;jettySize=auto;html=1;exitX=1;exitY=0.5;exitDx=0;exitDy=0;" edge="1" parent="1" source="fa78IFjZWXkh8iCnJKM1-1">
          <mxGeometry relative="1" as="geometry">
            <mxPoint x="720" y="90" as="targetPoint" />
          </mxGeometry>
        </mxCell>
        <mxCell id="fa78IFjZWXkh8iCnJKM1-1" value="" style="rounded=1;whiteSpace=wrap;html=1;" vertex="1" parent="1">
          <mxGeometry x="360" y="10" width="150" height="60" as="geometry" />
        </mxCell>
        <mxCell id="fa78IFjZWXkh8iCnJKM1-16" style="edgeStyle=orthogonalEdgeStyle;rounded=0;orthogonalLoop=1;jettySize=auto;html=1;exitX=0.5;exitY=1;exitDx=0;exitDy=0;" edge="1" parent="1" source="fa78IFjZWXkh8iCnJKM1-3">
          <mxGeometry relative="1" as="geometry">
            <mxPoint x="80" y="200" as="targetPoint" />
          </mxGeometry>
        </mxCell>
        <mxCell id="fa78IFjZWXkh8iCnJKM1-3" value="" style="rounded=1;whiteSpace=wrap;html=1;" vertex="1" parent="1">
          <mxGeometry x="20" y="110" width="120" height="60" as="geometry" />
        </mxCell>
        <mxCell id="fa78IFjZWXkh8iCnJKM1-80" style="edgeStyle=orthogonalEdgeStyle;rounded=0;orthogonalLoop=1;jettySize=auto;html=1;exitX=0.5;exitY=1;exitDx=0;exitDy=0;" edge="1" parent="1" source="fa78IFjZWXkh8iCnJKM1-4">
          <mxGeometry relative="1" as="geometry">
            <mxPoint x="440" y="190" as="targetPoint" />
          </mxGeometry>
        </mxCell>
        <mxCell id="fa78IFjZWXkh8iCnJKM1-4" value="" style="rounded=1;whiteSpace=wrap;html=1;" vertex="1" parent="1">
          <mxGeometry x="380" y="110" width="120" height="60" as="geometry" />
        </mxCell>
        <mxCell id="fa78IFjZWXkh8iCnJKM1-14" style="edgeStyle=orthogonalEdgeStyle;rounded=0;orthogonalLoop=1;jettySize=auto;html=1;exitX=0.5;exitY=1;exitDx=0;exitDy=0;" edge="1" parent="1" source="fa78IFjZWXkh8iCnJKM1-5">
          <mxGeometry relative="1" as="geometry">
            <mxPoint x="720" y="200" as="targetPoint" />
          </mxGeometry>
        </mxCell>
        <mxCell id="fa78IFjZWXkh8iCnJKM1-5" value="" style="rounded=1;whiteSpace=wrap;html=1;" vertex="1" parent="1">
          <mxGeometry x="660" y="110" width="120" height="60" as="geometry" />
        </mxCell>
        <mxCell id="fa78IFjZWXkh8iCnJKM1-17" style="edgeStyle=orthogonalEdgeStyle;rounded=0;orthogonalLoop=1;jettySize=auto;html=1;exitX=1;exitY=0.5;exitDx=0;exitDy=0;" edge="1" parent="1" source="fa78IFjZWXkh8iCnJKM1-10">
          <mxGeometry relative="1" as="geometry">
            <mxPoint x="180" y="220" as="targetPoint" />
          </mxGeometry>
        </mxCell>
        <mxCell id="fa78IFjZWXkh8iCnJKM1-45" style="edgeStyle=orthogonalEdgeStyle;rounded=0;orthogonalLoop=1;jettySize=auto;html=1;exitX=0.5;exitY=1;exitDx=0;exitDy=0;entryX=0.5;entryY=0;entryDx=0;entryDy=0;" edge="1" parent="1" source="fa78IFjZWXkh8iCnJKM1-10" target="fa78IFjZWXkh8iCnJKM1-27">
          <mxGeometry relative="1" as="geometry" />
        </mxCell>
        <mxCell id="fa78IFjZWXkh8iCnJKM1-10" value="" style="rounded=0;whiteSpace=wrap;html=1;" vertex="1" parent="1">
          <mxGeometry x="20" y="210" width="120" height="60" as="geometry" />
        </mxCell>
        <mxCell id="fa78IFjZWXkh8iCnJKM1-18" style="edgeStyle=orthogonalEdgeStyle;rounded=0;orthogonalLoop=1;jettySize=auto;html=1;exitX=0;exitY=0.5;exitDx=0;exitDy=0;entryX=1;entryY=0.75;entryDx=0;entryDy=0;" edge="1" parent="1" source="fa78IFjZWXkh8iCnJKM1-11" target="fa78IFjZWXkh8iCnJKM1-10">
          <mxGeometry relative="1" as="geometry" />
        </mxCell>
        <mxCell id="fa78IFjZWXkh8iCnJKM1-11" value="" style="rounded=0;whiteSpace=wrap;html=1;" vertex="1" parent="1">
          <mxGeometry x="190" y="210" width="80" height="40" as="geometry" />
        </mxCell>
        <mxCell id="fa78IFjZWXkh8iCnJKM1-15" style="edgeStyle=orthogonalEdgeStyle;rounded=0;orthogonalLoop=1;jettySize=auto;html=1;exitX=0.5;exitY=1;exitDx=0;exitDy=0;" edge="1" parent="1" source="fa78IFjZWXkh8iCnJKM1-12">
          <mxGeometry relative="1" as="geometry">
            <mxPoint x="730" y="310" as="targetPoint" />
          </mxGeometry>
        </mxCell>
        <mxCell id="fa78IFjZWXkh8iCnJKM1-12" value="" style="rounded=0;whiteSpace=wrap;html=1;" vertex="1" parent="1">
          <mxGeometry x="670" y="210" width="120" height="60" as="geometry" />
        </mxCell>
        <mxCell id="fa78IFjZWXkh8iCnJKM1-13" value="" style="rounded=0;whiteSpace=wrap;html=1;" vertex="1" parent="1">
          <mxGeometry x="670" y="320" width="120" height="60" as="geometry" />
        </mxCell>
        <mxCell id="fa78IFjZWXkh8iCnJKM1-19" value="Input" style="text;html=1;align=center;verticalAlign=middle;whiteSpace=wrap;rounded=0;" vertex="1" parent="1">
          <mxGeometry x="50" y="125" width="60" height="30" as="geometry" />
        </mxCell>
        <mxCell id="fa78IFjZWXkh8iCnJKM1-20" value="Menu" style="text;html=1;align=center;verticalAlign=middle;whiteSpace=wrap;rounded=0;" vertex="1" parent="1">
          <mxGeometry x="410" y="125" width="60" height="30" as="geometry" />
        </mxCell>
        <mxCell id="fa78IFjZWXkh8iCnJKM1-21" value="Exit" style="text;html=1;align=center;verticalAlign=middle;whiteSpace=wrap;rounded=0;" vertex="1" parent="1">
          <mxGeometry x="690" y="125" width="60" height="30" as="geometry" />
        </mxCell>
        <mxCell id="fa78IFjZWXkh8iCnJKM1-22" value="Dental Records&lt;div&gt;Program&lt;/div&gt;" style="text;html=1;align=center;verticalAlign=middle;whiteSpace=wrap;rounded=0;" vertex="1" parent="1">
          <mxGeometry x="350" y="25" width="170" height="30" as="geometry" />
        </mxCell>
        <mxCell id="fa78IFjZWXkh8iCnJKM1-23" value="Validate the input" style="text;html=1;align=center;verticalAlign=middle;whiteSpace=wrap;rounded=0;" vertex="1" parent="1">
          <mxGeometry x="200" y="215" width="60" height="30" as="geometry" />
        </mxCell>
        <mxCell id="fa78IFjZWXkh8iCnJKM1-24" value="Stop the menu from running" style="text;html=1;align=center;verticalAlign=middle;whiteSpace=wrap;rounded=0;" vertex="1" parent="1">
          <mxGeometry x="700" y="225" width="60" height="30" as="geometry" />
        </mxCell>
        <mxCell id="fa78IFjZWXkh8iCnJKM1-25" value="Print the exit message" style="text;html=1;align=center;verticalAlign=middle;whiteSpace=wrap;rounded=0;" vertex="1" parent="1">
          <mxGeometry x="700" y="335" width="60" height="30" as="geometry" />
        </mxCell>
        <mxCell id="fa78IFjZWXkh8iCnJKM1-26" value="Get how many people are in the family" style="text;html=1;align=center;verticalAlign=middle;whiteSpace=wrap;rounded=0;" vertex="1" parent="1">
          <mxGeometry x="25" y="225" width="110" height="30" as="geometry" />
        </mxCell>
        <mxCell id="fa78IFjZWXkh8iCnJKM1-46" style="edgeStyle=orthogonalEdgeStyle;rounded=0;orthogonalLoop=1;jettySize=auto;html=1;exitX=1;exitY=0.5;exitDx=0;exitDy=0;entryX=0;entryY=0.5;entryDx=0;entryDy=0;" edge="1" parent="1" source="fa78IFjZWXkh8iCnJKM1-27" target="fa78IFjZWXkh8iCnJKM1-28">
          <mxGeometry relative="1" as="geometry">
            <Array as="points">
              <mxPoint x="150" y="320" />
              <mxPoint x="150" y="315" />
            </Array>
          </mxGeometry>
        </mxCell>
        <mxCell id="fa78IFjZWXkh8iCnJKM1-48" style="edgeStyle=orthogonalEdgeStyle;rounded=0;orthogonalLoop=1;jettySize=auto;html=1;exitX=0.5;exitY=1;exitDx=0;exitDy=0;entryX=0.5;entryY=0;entryDx=0;entryDy=0;" edge="1" parent="1" source="fa78IFjZWXkh8iCnJKM1-27" target="fa78IFjZWXkh8iCnJKM1-29">
          <mxGeometry relative="1" as="geometry" />
        </mxCell>
        <mxCell id="fa78IFjZWXkh8iCnJKM1-49" style="edgeStyle=orthogonalEdgeStyle;rounded=0;orthogonalLoop=1;jettySize=auto;html=1;entryX=0;entryY=0.5;entryDx=0;entryDy=0;exitX=0.617;exitY=1.033;exitDx=0;exitDy=0;exitPerimeter=0;" edge="1" parent="1" source="fa78IFjZWXkh8iCnJKM1-27" target="fa78IFjZWXkh8iCnJKM1-30">
          <mxGeometry relative="1" as="geometry">
            <Array as="points">
              <mxPoint x="94" y="370" />
              <mxPoint x="160" y="370" />
              <mxPoint x="160" y="410" />
            </Array>
          </mxGeometry>
        </mxCell>
        <mxCell id="fa78IFjZWXkh8iCnJKM1-27" value="" style="rounded=0;whiteSpace=wrap;html=1;" vertex="1" parent="1">
          <mxGeometry x="20" y="290" width="120" height="60" as="geometry" />
        </mxCell>
        <mxCell id="fa78IFjZWXkh8iCnJKM1-50" style="edgeStyle=orthogonalEdgeStyle;rounded=0;orthogonalLoop=1;jettySize=auto;html=1;exitX=0.5;exitY=1;exitDx=0;exitDy=0;" edge="1" parent="1" source="fa78IFjZWXkh8iCnJKM1-28">
          <mxGeometry relative="1" as="geometry">
            <mxPoint x="230" y="370" as="targetPoint" />
          </mxGeometry>
        </mxCell>
        <mxCell id="fa78IFjZWXkh8iCnJKM1-51" style="edgeStyle=orthogonalEdgeStyle;rounded=0;orthogonalLoop=1;jettySize=auto;html=1;entryX=1;entryY=0.75;entryDx=0;entryDy=0;" edge="1" parent="1" source="fa78IFjZWXkh8iCnJKM1-28" target="fa78IFjZWXkh8iCnJKM1-29">
          <mxGeometry relative="1" as="geometry" />
        </mxCell>
        <mxCell id="fa78IFjZWXkh8iCnJKM1-28" value="" style="rounded=0;whiteSpace=wrap;html=1;" vertex="1" parent="1">
          <mxGeometry x="190" y="290" width="80" height="50" as="geometry" />
        </mxCell>
        <mxCell id="fa78IFjZWXkh8iCnJKM1-52" value="" style="edgeStyle=orthogonalEdgeStyle;rounded=0;orthogonalLoop=1;jettySize=auto;html=1;" edge="1" parent="1" source="fa78IFjZWXkh8iCnJKM1-29" target="fa78IFjZWXkh8iCnJKM1-39">
          <mxGeometry relative="1" as="geometry" />
        </mxCell>
        <mxCell id="fa78IFjZWXkh8iCnJKM1-29" value="" style="rounded=0;whiteSpace=wrap;html=1;" vertex="1" parent="1">
          <mxGeometry x="40" y="380" width="85" height="60" as="geometry" />
        </mxCell>
        <mxCell id="fa78IFjZWXkh8iCnJKM1-53" value="" style="edgeStyle=orthogonalEdgeStyle;rounded=0;orthogonalLoop=1;jettySize=auto;html=1;" edge="1" parent="1" source="fa78IFjZWXkh8iCnJKM1-30" target="fa78IFjZWXkh8iCnJKM1-39">
          <mxGeometry relative="1" as="geometry" />
        </mxCell>
        <mxCell id="fa78IFjZWXkh8iCnJKM1-30" value="" style="rounded=0;whiteSpace=wrap;html=1;" vertex="1" parent="1">
          <mxGeometry x="180" y="380" width="80" height="60" as="geometry" />
        </mxCell>
        <mxCell id="fa78IFjZWXkh8iCnJKM1-31" value="" style="rounded=0;whiteSpace=wrap;html=1;" vertex="1" parent="1">
          <mxGeometry x="70" y="470" width="170" height="40" as="geometry" />
        </mxCell>
        <mxCell id="fa78IFjZWXkh8iCnJKM1-57" value="" style="edgeStyle=orthogonalEdgeStyle;rounded=0;orthogonalLoop=1;jettySize=auto;html=1;" edge="1" parent="1" source="fa78IFjZWXkh8iCnJKM1-32" target="fa78IFjZWXkh8iCnJKM1-39">
          <mxGeometry relative="1" as="geometry" />
        </mxCell>
        <mxCell id="fa78IFjZWXkh8iCnJKM1-32" value="" style="rounded=0;whiteSpace=wrap;html=1;" vertex="1" parent="1">
          <mxGeometry x="50" y="560" width="210" height="60" as="geometry" />
        </mxCell>
        <mxCell id="fa78IFjZWXkh8iCnJKM1-33" value="" style="rounded=0;whiteSpace=wrap;html=1;" vertex="1" parent="1">
          <mxGeometry x="350" y="200" width="180" height="40" as="geometry" />
        </mxCell>
        <mxCell id="fa78IFjZWXkh8iCnJKM1-34" value="" style="rounded=0;whiteSpace=wrap;html=1;" vertex="1" parent="1">
          <mxGeometry x="560" y="190" width="60" height="50" as="geometry" />
        </mxCell>
        <mxCell id="fa78IFjZWXkh8iCnJKM1-87" style="edgeStyle=orthogonalEdgeStyle;rounded=0;orthogonalLoop=1;jettySize=auto;html=1;" edge="1" parent="1" source="fa78IFjZWXkh8iCnJKM1-35">
          <mxGeometry relative="1" as="geometry">
            <mxPoint x="345" y="360" as="targetPoint" />
          </mxGeometry>
        </mxCell>
        <mxCell id="fa78IFjZWXkh8iCnJKM1-35" value="" style="rounded=0;whiteSpace=wrap;html=1;" vertex="1" parent="1">
          <mxGeometry x="310" y="260" width="70" height="60" as="geometry" />
        </mxCell>
        <mxCell id="fa78IFjZWXkh8iCnJKM1-88" style="edgeStyle=orthogonalEdgeStyle;rounded=0;orthogonalLoop=1;jettySize=auto;html=1;" edge="1" parent="1" source="fa78IFjZWXkh8iCnJKM1-36">
          <mxGeometry relative="1" as="geometry">
            <mxPoint x="445" y="350" as="targetPoint" />
          </mxGeometry>
        </mxCell>
        <mxCell id="fa78IFjZWXkh8iCnJKM1-36" value="" style="rounded=0;whiteSpace=wrap;html=1;" vertex="1" parent="1">
          <mxGeometry x="410" y="260" width="70" height="60" as="geometry" />
        </mxCell>
        <mxCell id="fa78IFjZWXkh8iCnJKM1-89" style="edgeStyle=orthogonalEdgeStyle;rounded=0;orthogonalLoop=1;jettySize=auto;html=1;exitX=0.5;exitY=1;exitDx=0;exitDy=0;" edge="1" parent="1" source="fa78IFjZWXkh8iCnJKM1-37">
          <mxGeometry relative="1" as="geometry">
            <mxPoint x="570" y="370" as="targetPoint" />
          </mxGeometry>
        </mxCell>
        <mxCell id="fa78IFjZWXkh8iCnJKM1-37" value="" style="rounded=0;whiteSpace=wrap;html=1;" vertex="1" parent="1">
          <mxGeometry x="510" y="260" width="70" height="60" as="geometry" />
        </mxCell>
        <mxCell id="fa78IFjZWXkh8iCnJKM1-58" style="edgeStyle=orthogonalEdgeStyle;rounded=0;orthogonalLoop=1;jettySize=auto;html=1;" edge="1" parent="1" source="fa78IFjZWXkh8iCnJKM1-38">
          <mxGeometry relative="1" as="geometry">
            <mxPoint x="190" y="530" as="targetPoint" />
          </mxGeometry>
        </mxCell>
        <mxCell id="fa78IFjZWXkh8iCnJKM1-38" value="Store tooth types into a 3D array" style="text;html=1;align=center;verticalAlign=middle;whiteSpace=wrap;rounded=0;" vertex="1" parent="1">
          <mxGeometry x="45" y="575" width="220" height="30" as="geometry" />
        </mxCell>
        <mxCell id="fa78IFjZWXkh8iCnJKM1-54" value="" style="edgeStyle=orthogonalEdgeStyle;rounded=0;orthogonalLoop=1;jettySize=auto;html=1;" edge="1" parent="1" source="fa78IFjZWXkh8iCnJKM1-39" target="fa78IFjZWXkh8iCnJKM1-38">
          <mxGeometry relative="1" as="geometry" />
        </mxCell>
        <mxCell id="fa78IFjZWXkh8iCnJKM1-59" style="edgeStyle=orthogonalEdgeStyle;rounded=0;orthogonalLoop=1;jettySize=auto;html=1;exitX=1;exitY=0.5;exitDx=0;exitDy=0;" edge="1" parent="1" source="fa78IFjZWXkh8iCnJKM1-39">
          <mxGeometry relative="1" as="geometry">
            <mxPoint x="250" y="460" as="targetPoint" />
          </mxGeometry>
        </mxCell>
        <mxCell id="fa78IFjZWXkh8iCnJKM1-39" value="Validate input" style="text;html=1;align=center;verticalAlign=middle;whiteSpace=wrap;rounded=0;" vertex="1" parent="1">
          <mxGeometry x="65" y="475" width="180" height="30" as="geometry" />
        </mxCell>
        <mxCell id="fa78IFjZWXkh8iCnJKM1-47" style="edgeStyle=orthogonalEdgeStyle;rounded=0;orthogonalLoop=1;jettySize=auto;html=1;entryX=1;entryY=0.75;entryDx=0;entryDy=0;" edge="1" parent="1" source="fa78IFjZWXkh8iCnJKM1-40" target="fa78IFjZWXkh8iCnJKM1-27">
          <mxGeometry relative="1" as="geometry" />
        </mxCell>
        <mxCell id="fa78IFjZWXkh8iCnJKM1-40" value="Store in an array" style="text;html=1;align=center;verticalAlign=middle;whiteSpace=wrap;rounded=0;" vertex="1" parent="1">
          <mxGeometry x="200" y="300" width="60" height="30" as="geometry" />
        </mxCell>
        <mxCell id="fa78IFjZWXkh8iCnJKM1-41" value="Retrieve tooth types for uppers" style="text;html=1;align=center;verticalAlign=middle;whiteSpace=wrap;rounded=0;" vertex="1" parent="1">
          <mxGeometry x="52.5" y="395" width="60" height="30" as="geometry" />
        </mxCell>
        <mxCell id="fa78IFjZWXkh8iCnJKM1-42" value="Retrieve tooth types for lowers" style="text;html=1;align=center;verticalAlign=middle;whiteSpace=wrap;rounded=0;" vertex="1" parent="1">
          <mxGeometry x="190" y="395" width="60" height="30" as="geometry" />
        </mxCell>
        <mxCell id="fa78IFjZWXkh8iCnJKM1-44" value="Retrieve the names of the family" style="text;html=1;align=center;verticalAlign=middle;whiteSpace=wrap;rounded=0;" vertex="1" parent="1">
          <mxGeometry x="52.5" y="305" width="60" height="30" as="geometry" />
        </mxCell>
        <mxCell id="fa78IFjZWXkh8iCnJKM1-60" style="edgeStyle=orthogonalEdgeStyle;rounded=0;orthogonalLoop=1;jettySize=auto;html=1;entryX=0.165;entryY=1.033;entryDx=0;entryDy=0;entryPerimeter=0;" edge="1" parent="1" source="fa78IFjZWXkh8iCnJKM1-39" target="fa78IFjZWXkh8iCnJKM1-29">
          <mxGeometry relative="1" as="geometry" />
        </mxCell>
        <mxCell id="fa78IFjZWXkh8iCnJKM1-91" style="edgeStyle=orthogonalEdgeStyle;rounded=0;orthogonalLoop=1;jettySize=auto;html=1;" edge="1" parent="1" source="fa78IFjZWXkh8iCnJKM1-61">
          <mxGeometry relative="1" as="geometry">
            <mxPoint x="460" y="500" as="targetPoint" />
          </mxGeometry>
        </mxCell>
        <mxCell id="fa78IFjZWXkh8iCnJKM1-61" value="" style="rounded=0;whiteSpace=wrap;html=1;" vertex="1" parent="1">
          <mxGeometry x="400" y="360" width="120" height="110" as="geometry" />
        </mxCell>
        <mxCell id="fa78IFjZWXkh8iCnJKM1-62" value="" style="rounded=0;whiteSpace=wrap;html=1;" vertex="1" parent="1">
          <mxGeometry x="305" y="365" width="80" height="60" as="geometry" />
        </mxCell>
        <mxCell id="fa78IFjZWXkh8iCnJKM1-63" value="" style="rounded=0;whiteSpace=wrap;html=1;" vertex="1" parent="1">
          <mxGeometry x="600" y="300" width="50" height="60" as="geometry" />
        </mxCell>
        <mxCell id="fa78IFjZWXkh8iCnJKM1-93" style="edgeStyle=orthogonalEdgeStyle;rounded=0;orthogonalLoop=1;jettySize=auto;html=1;" edge="1" parent="1" source="fa78IFjZWXkh8iCnJKM1-64">
          <mxGeometry relative="1" as="geometry">
            <mxPoint x="580" y="500" as="targetPoint" />
          </mxGeometry>
        </mxCell>
        <mxCell id="fa78IFjZWXkh8iCnJKM1-64" value="" style="rounded=0;whiteSpace=wrap;html=1;" vertex="1" parent="1">
          <mxGeometry x="540" y="375" width="80" height="100" as="geometry" />
        </mxCell>
        <mxCell id="fa78IFjZWXkh8iCnJKM1-65" value="" style="rounded=1;whiteSpace=wrap;html=1;" vertex="1" parent="1">
          <mxGeometry x="400" y="600" width="120" height="60" as="geometry" />
        </mxCell>
        <mxCell id="fa78IFjZWXkh8iCnJKM1-90" style="edgeStyle=orthogonalEdgeStyle;rounded=0;orthogonalLoop=1;jettySize=auto;html=1;entryX=0.5;entryY=1;entryDx=0;entryDy=0;" edge="1" parent="1" source="fa78IFjZWXkh8iCnJKM1-66" target="fa78IFjZWXkh8iCnJKM1-61">
          <mxGeometry relative="1" as="geometry" />
        </mxCell>
        <mxCell id="fa78IFjZWXkh8iCnJKM1-94" style="edgeStyle=orthogonalEdgeStyle;rounded=0;orthogonalLoop=1;jettySize=auto;html=1;" edge="1" parent="1" source="fa78IFjZWXkh8iCnJKM1-66">
          <mxGeometry relative="1" as="geometry">
            <mxPoint x="450" y="590" as="targetPoint" />
          </mxGeometry>
        </mxCell>
        <mxCell id="fa78IFjZWXkh8iCnJKM1-66" value="" style="rounded=1;whiteSpace=wrap;html=1;" vertex="1" parent="1">
          <mxGeometry x="400" y="505" width="120" height="60" as="geometry" />
        </mxCell>
        <mxCell id="fa78IFjZWXkh8iCnJKM1-67" value="" style="rounded=0;whiteSpace=wrap;html=1;" vertex="1" parent="1">
          <mxGeometry x="550" y="510" width="90" height="75" as="geometry" />
        </mxCell>
        <mxCell id="fa78IFjZWXkh8iCnJKM1-81" style="edgeStyle=orthogonalEdgeStyle;rounded=0;orthogonalLoop=1;jettySize=auto;html=1;entryX=0;entryY=0.75;entryDx=0;entryDy=0;" edge="1" parent="1" source="fa78IFjZWXkh8iCnJKM1-68" target="fa78IFjZWXkh8iCnJKM1-72">
          <mxGeometry relative="1" as="geometry" />
        </mxCell>
        <mxCell id="fa78IFjZWXkh8iCnJKM1-83" style="edgeStyle=orthogonalEdgeStyle;rounded=0;orthogonalLoop=1;jettySize=auto;html=1;" edge="1" parent="1" source="fa78IFjZWXkh8iCnJKM1-68">
          <mxGeometry relative="1" as="geometry">
            <mxPoint x="330" y="250" as="targetPoint" />
          </mxGeometry>
        </mxCell>
        <mxCell id="fa78IFjZWXkh8iCnJKM1-84" style="edgeStyle=orthogonalEdgeStyle;rounded=0;orthogonalLoop=1;jettySize=auto;html=1;entryX=0.5;entryY=0;entryDx=0;entryDy=0;" edge="1" parent="1" source="fa78IFjZWXkh8iCnJKM1-68" target="fa78IFjZWXkh8iCnJKM1-36">
          <mxGeometry relative="1" as="geometry" />
        </mxCell>
        <mxCell id="fa78IFjZWXkh8iCnJKM1-85" style="edgeStyle=orthogonalEdgeStyle;rounded=0;orthogonalLoop=1;jettySize=auto;html=1;" edge="1" parent="1" source="fa78IFjZWXkh8iCnJKM1-68">
          <mxGeometry relative="1" as="geometry">
            <mxPoint x="540" y="250" as="targetPoint" />
          </mxGeometry>
        </mxCell>
        <mxCell id="fa78IFjZWXkh8iCnJKM1-86" style="edgeStyle=orthogonalEdgeStyle;rounded=0;orthogonalLoop=1;jettySize=auto;html=1;" edge="1" parent="1" source="fa78IFjZWXkh8iCnJKM1-68">
          <mxGeometry relative="1" as="geometry">
            <mxPoint x="620" y="280" as="targetPoint" />
            <Array as="points">
              <mxPoint x="440" y="250" />
              <mxPoint x="621" y="250" />
            </Array>
          </mxGeometry>
        </mxCell>
        <mxCell id="fa78IFjZWXkh8iCnJKM1-68" value="Prompt user for their choice" style="text;html=1;align=center;verticalAlign=middle;whiteSpace=wrap;rounded=0;" vertex="1" parent="1">
          <mxGeometry x="360" y="205" width="160" height="30" as="geometry" />
        </mxCell>
        <mxCell id="fa78IFjZWXkh8iCnJKM1-69" value="Print record" style="text;html=1;align=center;verticalAlign=middle;whiteSpace=wrap;rounded=0;" vertex="1" parent="1">
          <mxGeometry x="315" y="275" width="60" height="30" as="geometry" />
        </mxCell>
        <mxCell id="fa78IFjZWXkh8iCnJKM1-70" value="Extract a tooth" style="text;html=1;align=center;verticalAlign=middle;whiteSpace=wrap;rounded=0;" vertex="1" parent="1">
          <mxGeometry x="415" y="275" width="60" height="30" as="geometry" />
        </mxCell>
        <mxCell id="fa78IFjZWXkh8iCnJKM1-71" value="Report root canal" style="text;html=1;align=center;verticalAlign=middle;whiteSpace=wrap;rounded=0;" vertex="1" parent="1">
          <mxGeometry x="515" y="275" width="60" height="30" as="geometry" />
        </mxCell>
        <mxCell id="fa78IFjZWXkh8iCnJKM1-82" style="edgeStyle=orthogonalEdgeStyle;rounded=0;orthogonalLoop=1;jettySize=auto;html=1;entryX=1;entryY=0.25;entryDx=0;entryDy=0;" edge="1" parent="1" source="fa78IFjZWXkh8iCnJKM1-72" target="fa78IFjZWXkh8iCnJKM1-33">
          <mxGeometry relative="1" as="geometry" />
        </mxCell>
        <mxCell id="fa78IFjZWXkh8iCnJKM1-72" value="validate input" style="text;html=1;align=center;verticalAlign=middle;whiteSpace=wrap;rounded=0;" vertex="1" parent="1">
          <mxGeometry x="560" y="200" width="60" height="30" as="geometry" />
        </mxCell>
        <mxCell id="fa78IFjZWXkh8iCnJKM1-73" value="Upper and lowers for each" style="text;html=1;align=center;verticalAlign=middle;whiteSpace=wrap;rounded=0;" vertex="1" parent="1">
          <mxGeometry x="315" y="380" width="60" height="30" as="geometry" />
        </mxCell>
        <mxCell id="fa78IFjZWXkh8iCnJKM1-74" value="Retrieve the family member and the tooth layer and number" style="text;html=1;align=center;verticalAlign=middle;whiteSpace=wrap;rounded=0;" vertex="1" parent="1">
          <mxGeometry x="410" y="395" width="95" height="30" as="geometry" />
        </mxCell>
        <mxCell id="fa78IFjZWXkh8iCnJKM1-75" value="Add total number of each tooth type for the family" style="text;html=1;align=center;verticalAlign=middle;whiteSpace=wrap;rounded=0;" vertex="1" parent="1">
          <mxGeometry x="550" y="400" width="60" height="30" as="geometry" />
        </mxCell>
        <mxCell id="fa78IFjZWXkh8iCnJKM1-76" value="Find the square roots" style="text;html=1;align=center;verticalAlign=middle;whiteSpace=wrap;rounded=0;" vertex="1" parent="1">
          <mxGeometry x="560" y="535" width="60" height="30" as="geometry" />
        </mxCell>
        <mxCell id="fa78IFjZWXkh8iCnJKM1-77" value="Validate input" style="text;html=1;align=center;verticalAlign=middle;whiteSpace=wrap;rounded=0;" vertex="1" parent="1">
          <mxGeometry x="425" y="520" width="60" height="30" as="geometry" />
        </mxCell>
        <mxCell id="fa78IFjZWXkh8iCnJKM1-78" value="Exit" style="text;html=1;align=center;verticalAlign=middle;whiteSpace=wrap;rounded=0;" vertex="1" parent="1">
          <mxGeometry x="595" y="315" width="60" height="30" as="geometry" />
        </mxCell>
        <mxCell id="fa78IFjZWXkh8iCnJKM1-79" value="Convert tooth to M in array" style="text;html=1;align=center;verticalAlign=middle;whiteSpace=wrap;rounded=0;" vertex="1" parent="1">
          <mxGeometry x="430" y="615" width="60" height="30" as="geometry" />
        </mxCell>
      </root>
    </mxGraphModel>
  </diagram>
</mxfile>
